<?xml version="1.0" encoding="UTF-8"?>
<svg width="28px" height="27px" viewBox="0 0 28 27" version="1.1" xmlns="http://www.w3.org/2000/svg" xmlns:xlink="http://www.w3.org/1999/xlink">
    <title>编组 70备份</title>
    <g id="页面-1" stroke="none" stroke-width="1" fill="none" fill-rule="evenodd">
        <g id="09" transform="translate(-98.000000, -720.000000)">
            <g id="编组-3" transform="translate(0.000000, 714.000000)">
                <g id="编组-81" transform="translate(17.000000, 5.000000)">
                    <g id="编组-71" transform="translate(81.000000, 0.751371)">
                        <path d="M21.2601276,8.24222157 L21.2601276,7 C21.2601276,5.8954305 20.3646971,5 19.2601276,5 L7,5 C5.8954305,5 5,5.8954305 5,7 L5,19.8897026 C5,20.9942721 5.8954305,21.8897026 7,21.8897026 L21.8337766,21.8897026 C22.9383461,21.8897026 23.8337766,20.9942721 23.8337766,19.8897026 L23.8337766,10.2422216 C23.8337766,9.13765207 22.9383461,8.24222157 21.8337766,8.24222157 L8.49502854,8.24222157 L8.49502854,8.24222157" id="路径-114" stroke="#5F8AEA" stroke-width="2" stroke-linecap="round"></path>
                        <rect id="矩形" fill="#5F8AEA" x="18" y="13.2486295" width="3" height="3" rx="1"></rect>
                    </g>
                </g>
            </g>
        </g>
    </g>
</svg>