<?xml version="1.0" encoding="UTF-8"?>
<svg width="17px" height="18px" viewBox="0 0 17 18" version="1.1" xmlns="http://www.w3.org/2000/svg" xmlns:xlink="http://www.w3.org/1999/xlink">
    <title>编组 114</title>
    <g id="页面-1" stroke="none" stroke-width="1" fill="none" fill-rule="evenodd" stroke-linecap="round">
        <g id="22" transform="translate(-91.000000, -593.000000)" stroke="#6490F1" stroke-width="1.5">
            <g id="编组-118" transform="translate(92.000000, 593.000000)">
                <g id="编组-5" transform="translate(0.000000, 1.000000)">
                    <g id="编组-114" transform="translate(0.954875, 0.440039)">
                        <path d="M9.54512532,2.71618846 L9.54512532,1 C9.54512532,0.44771525 9.09741007,3.45126062e-15 8.54512532,3.55271368e-15 L1,3.55271368e-15 C0.44771525,3.65416674e-15 -6.76353751e-17,0.44771525 0,1 L0,8.64954448 C6.76353751e-17,9.20182923 0.44771525,9.64954448 1,9.64954448 L4.40731047,9.64954448 L4.40731047,9.64954448" id="路径-139"></path>
                        <path d="M5.77256266,4.82477224 L12.9345964,4.82477224 C13.4868812,4.82477224 13.9345964,5.27248749 13.9345964,5.82477224 L13.9345964,13.3966946 C13.9345964,13.9489794 13.4868812,14.3966946 12.9345964,14.3966946 L5.77256266,14.3966946 C5.22027791,14.3966946 4.77256266,13.9489794 4.77256266,13.3966946 L4.77256266,5.82477224 C4.77256266,5.27248749 5.22027791,4.82477224 5.77256266,4.82477224 Z" id="路径-140"></path>
                    </g>
                </g>
            </g>
        </g>
    </g>
</svg>