<?xml version="1.0" encoding="UTF-8"?>
<svg width="21px" height="18px" viewBox="0 0 21 18" version="1.1" xmlns="http://www.w3.org/2000/svg" xmlns:xlink="http://www.w3.org/1999/xlink">
    <title>编组 58</title>
    <g id="页面-1" stroke="none" stroke-width="1" fill="none" fill-rule="evenodd">
        <g id="09" transform="translate(-17.000000, -58.000000)" stroke="#FFFFFF" stroke-width="2">
            <g id="编组-57" transform="translate(17.000000, 56.000000)">
                <g id="编组-58" transform="translate(0.000000, 2.000000)">
                    <line x1="3" y1="5.68434189e-14" x2="3" y2="6.9656063" id="路径-109"></line>
                    <line x1="3" y1="11" x2="3" y2="17.9656063" id="路径-109备份"></line>
                    <line x1="0" y1="10" x2="6.09484441" y2="10" id="路径-110"></line>
                    <line x1="17" y1="0" x2="17" y2="9" id="路径-109"></line>
                    <line x1="17" y1="13" x2="17" y2="17.9656063" id="路径-109备份"></line>
                    <line x1="14" y1="12" x2="20.0948444" y2="12" id="路径-110"></line>
                    <line x1="10" y1="8" x2="10" y2="18" id="路径-109" transform="translate(10.000000, 13.000000) scale(1, -1) translate(-10.000000, -13.000000) "></line>
                    <line x1="10" y1="0" x2="10" y2="5.9656063" id="路径-109备份" transform="translate(10.000000, 3.000000) scale(1, -1) translate(-10.000000, -3.000000) "></line>
                    <line x1="7" y1="5" x2="13.0948444" y2="5" id="路径-110" transform="translate(10.047422, 5.000000) scale(1, -1) translate(-10.047422, -5.000000) "></line>
                </g>
            </g>
        </g>
    </g>
</svg>